HIERARCHY
ROOT Hips
{
	OFFSET	0.000000	0.000000	0.000000
	CHANNELS 6 Xposition Yposition Zposition Zrotation Xrotation Yrotation
	JOINT LeftUpLeg
	{
		OFFSET	12.830505	-7.049846	-1.643436
		CHANNELS 3 Zrotation Xrotation Yrotation
		JOINT LeftLeg
		{
			OFFSET	0.620834	-39.957500	-1.919341
			CHANNELS 3 Zrotation Xrotation Yrotation
			JOINT LeftFoot
			{
				OFFSET	-0.413890	-44.704761	-3.870325
				CHANNELS 3 Zrotation Xrotation Yrotation
				JOINT LeftFootHeel
				{
					OFFSET	0.164738	-8.918193	-6.555130
					CHANNELS 3 Zrotation Xrotation Yrotation
					End Site
					{
						OFFSET	-0.604053	0.000000	21.044330
					}
				}
			}
		}
	}
	JOINT RightUpLeg
	{
		OFFSET	-12.830505	-7.049846	-1.643436
		CHANNELS 3 Zrotation Xrotation Yrotation
		JOINT RightLeg
		{
			OFFSET	-0.620834	-39.957500	-1.919341
			CHANNELS 3 Zrotation Xrotation Yrotation
			JOINT RightFoot
			{
				OFFSET	0.413890	-44.704761	-3.870325
				CHANNELS 3 Zrotation Xrotation Yrotation
				JOINT RightFootHeel
				{
					OFFSET	-0.164738	-8.918193	-6.555130
					CHANNELS 3 Zrotation Xrotation Yrotation
					End Site
					{
						OFFSET	0.604053	0.000000	21.044330
					}
				}
			}
		}
	}
	JOINT Spine
	{
		OFFSET	0.000000	12.498170	1.820647
		CHANNELS 3 Zrotation Xrotation Yrotation
		JOINT Spine1
		{
			OFFSET	0.000000	7.620000	0.000000
			CHANNELS 3 Zrotation Xrotation Yrotation
			JOINT LeftShoulder
			{
				OFFSET	9.167800	29.136339	-5.551221
				CHANNELS 3 Zrotation Xrotation Yrotation
				JOINT LeftArm
				{
					OFFSET	12.133453	-3.880866	1.461963
					CHANNELS 3 Zrotation Xrotation Yrotation
					JOINT LeftForeArm
					{
						OFFSET	2.507115	-31.664908	-1.069404
						CHANNELS 3 Zrotation Xrotation Yrotation
						JOINT LeftHand
						{
							OFFSET	4.116172	-24.512624	5.009439
							CHANNELS 3 Zrotation Xrotation Yrotation
							End Site
							{
								OFFSET	-0.213136	-10.931856	2.182134
							}
						}
					}
				}
			}
			JOINT RightShoulder
			{
				OFFSET	-9.167800	29.136339	-5.551221
				CHANNELS 3 Zrotation Xrotation Yrotation
				JOINT RightArm
				{
					OFFSET	-12.133453	-3.880866	1.461963
					CHANNELS 3 Zrotation Xrotation Yrotation
					JOINT RightForeArm
					{
						OFFSET	-2.507115	-31.664908	-1.069404
						CHANNELS 3 Zrotation Xrotation Yrotation
						JOINT RightHand
						{
							OFFSET	-4.116172	-24.512624	5.009439
							CHANNELS 3 Zrotation Xrotation Yrotation
							End Site
							{
								OFFSET	0.213136	-10.931856	2.182134
							}
						}
					}
				}
			}
			JOINT Neck
			{
				OFFSET	0.000000	32.926272	-3.635654
				CHANNELS 3 Zrotation Xrotation Yrotation
				JOINT Head
				{
					OFFSET	0.000000	12.481178	4.646143
					CHANNELS 3 Zrotation Xrotation Yrotation
					End Site
					{
						OFFSET	0.000000	17.715204	-2.222063
					}
				}
			}
		}
	}
}
MOTION
Frames:     19
Frame Time: 0.016667
-2.348896	102.772020	14.136995	-10.876747	-39.415989	29.554783	37.459740	-1.902142	14.261040	14.143786	59.090851	-15.120496	6.471394	2.802689	6.272590	0.	0.	0.	-12.341211	-50.678658	-18.640404	-36.971279	124.999046	37.512604	9.196011	7.028148	13.445239	0.	0.	0.	-0.000004	-0.000005	-0.000002	-14.257274	30.807306	14.952870	6.126226	0.451697	5.659584	-17.366995	-45.418823	-39.133698	-94.492012	-41.339470	-80.138512	6.373730	31.285488	-35.176620	-5.132328	-10.047112	-4.493544	-25.138756	20.112843	-1.604814	-66.084328	-138.963562	-86.100365	2.079554	9.566583	10.056919	3.840623	-1.870383	1.640760	28.563623	3.497877	3.974060	
-2.531180	102.689418	14.127503	-9.967813	-38.670269	29.713659	36.313293	-1.619928	14.295847	13.076886	58.807190	-14.000863	6.622044	2.202046	6.662189	0.	0.	0.	-9.751293	-48.450500	-16.903275	-36.738800	124.029762	37.748173	10.013981	7.736816	13.318354	0.	0.	0.	0.000001	0.000000	0.000002	-14.484119	30.234634	15.132412	6.061228	0.530072	5.673295	-15.834935	-44.779518	-37.566097	-94.373077	-41.315155	-80.196091	6.066824	31.301750	-34.892342	-5.243905	-9.589628	-4.475469	-23.845686	20.098421	-1.949981	-67.135590	-138.292465	-86.638298	2.197368	9.541099	9.974290	3.890387	-1.630883	1.682731	28.069151	3.406697	3.859761	
-2.705115	102.561093	14.147966	-8.249589	-37.223190	30.146549	34.026291	-1.197458	14.288083	11.353773	58.195980	-11.996142	6.746848	1.314819	7.052454	0.	0.	0.	-6.113817	-43.837574	-14.417583	-36.788292	121.572823	38.467041	11.472690	9.713625	13.793180	0.	0.	0.	-0.000002	0.000001	0.000001	-14.868668	29.122335	15.392472	5.882136	0.492017	5.668814	-12.659364	-43.061592	-34.389374	-94.081299	-41.311886	-80.305634	5.590287	31.223965	-34.410492	-5.302485	-8.762018	-4.293951	-21.316450	20.164152	-2.861806	-69.506607	-136.978683	-88.144180	2.701273	9.633081	9.929058	4.154513	-1.030890	1.865372	26.907578	3.157550	3.382711	
-3.027144	102.360185	14.372246	-6.573615	-35.823124	30.550177	32.056141	-1.110654	14.673379	10.683695	57.895176	-11.103914	6.721640	1.013497	7.025706	0.	0.	0.	-5.416759	-41.710743	-12.901611	-37.370678	120.207138	39.148354	12.019851	10.488050	14.541886	0.	0.	0.	0.000002	0.000004	-0.000001	-16.018679	28.229679	15.750035	6.309239	-0.076892	6.068566	-11.809088	-41.398441	-33.243233	-91.287117	-41.809048	-78.444427	4.585109	29.257788	-34.123260	-4.506094	-8.529640	-3.752671	-20.668127	20.412363	-3.671185	-70.881149	-136.276627	-89.049873	3.072193	9.721902	10.024793	4.329397	-0.715578	1.923059	26.365915	3.006979	3.208447	
-2.890519	102.474063	14.323259	-5.706903	-35.180794	30.743525	30.816315	-0.479652	13.943402	8.716604	57.115379	-8.398618	6.480258	0.727742	6.383822	0.	0.	0.	-0.627463	-33.696190	-9.508925	-42.853565	115.783127	43.879684	12.503567	10.040106	17.338305	0.	0.	0.	0.000000	-0.000000	0.000001	-14.399339	27.096943	15.908247	4.918719	0.763729	5.194357	-6.091871	-39.058167	-28.339727	-92.694649	-41.526661	-79.867813	5.064485	30.685038	-33.452900	-5.236351	-7.239119	-4.112548	-15.635359	20.200703	-4.678785	104.075020	-46.424789	87.956421	4.242959	9.979284	10.666348	4.396513	-0.005865	2.101684	25.155508	2.447988	2.444759	
-3.013046	102.399891	14.583420	-4.179717	-34.080704	31.031738	29.268475	-0.078455	14.006333	7.265513	56.689865	-6.839745	6.432025	0.973439	5.989751	0.	0.	0.	1.378879	-28.546587	-7.902119	-49.427906	111.872650	49.870380	11.540897	8.164307	17.266228	0.	0.	0.	0.000001	0.000003	0.000001	-14.380610	26.160450	16.386456	5.289362	0.218551	5.675996	-4.931901	-36.145855	-26.839846	-91.199150	-41.754963	-79.183800	5.073505	30.521561	-33.258453	-5.330963	-6.408031	-4.092045	-12.667601	19.910028	-5.242242	99.930687	-48.689518	85.646034	4.537917	9.855050	11.044946	4.310791	0.192406	2.483786	24.610662	2.457207	1.792911	
-3.036775	102.298328	14.876482	-2.734318	-32.982651	31.208412	27.802982	0.330835	14.123644	5.690366	56.327198	-5.453442	6.447269	1.296417	5.792624	0.	0.	0.	2.673826	-23.434784	-7.338655	-60.626358	107.730621	61.509380	9.659772	6.590584	14.514429	0.	0.	0.	-0.000001	-0.000000	0.000004	-14.271468	25.107409	16.836765	5.143638	0.335293	5.817546	-3.209639	-33.902851	-25.148510	-89.508331	-42.147663	-78.421097	5.269273	30.338375	-33.550934	-5.202573	-5.464143	-3.709327	-10.307364	19.607588	-5.667653	95.380005	-50.950195	82.682045	4.107852	9.648896	11.069105	4.526306	0.793612	2.808741	23.590872	2.386076	1.181350	
-3.014206	102.248438	14.985660	-1.964433	-32.357849	31.315813	27.045395	0.503773	14.260138	4.855399	56.108089	-4.804282	6.362088	1.521020	5.529711	0.	0.	0.	3.094016	-21.038450	-7.253791	-68.657341	105.975716	69.878571	8.719680	5.979125	12.484079	0.	0.	0.	-0.000003	-0.000004	0.000000	-14.203867	24.553591	17.006588	5.672687	-0.040742	6.242395	-3.055065	-32.209515	-24.697865	-85.655777	-43.038441	-76.081635	4.167151	28.131927	-33.557461	-4.116295	-5.154907	-2.859618	-8.624796	19.300732	-5.985998	91.381424	-52.820122	80.618607	3.215841	10.093829	9.577779	4.658433	1.188794	2.849503	23.005478	2.299453	0.993734	
-3.082669	102.052190	15.672720	-0.190257	-30.312029	31.372671	24.926651	0.771754	14.935576	3.356718	55.398247	-3.530474	6.235415	1.636603	5.130111	0.	0.	0.	3.911105	-14.942410	-6.419673	78.802711	76.005356	-76.907333	7.468109	4.569485	6.100240	0.	0.	0.	-0.000002	-0.000000	-0.000000	-13.840611	22.969320	17.447422	4.614949	0.232937	5.851102	0.687758	-28.792768	-21.766993	-86.383751	-43.638981	-77.336311	5.731011	29.681841	-34.606987	-4.520383	-4.276560	-2.588534	-7.357607	18.983328	-6.269083	85.255737	-54.055393	73.636200	1.849975	9.865708	10.771521	4.745675	2.004121	2.836941	21.290680	2.445603	0.381156	
-3.176019	101.919388	16.011777	0.822630	-28.925175	31.176132	23.596968	0.824506	15.574885	2.541448	54.909477	-2.729527	6.058460	1.735328	4.660590	0.	0.	0.	4.164165	-11.530692	-5.695896	58.100815	74.865913	-56.848495	7.577902	3.443272	4.024379	0.	0.	0.	-0.000000	-0.000000	-0.000003	-13.423299	21.892006	17.745977	4.381792	0.079100	5.947243	1.997728	-26.066162	-20.615309	-87.438927	-43.936802	-78.594627	7.080936	31.475571	-34.960781	-4.141006	-3.932710	-2.052886	-6.380895	18.425491	-6.480752	79.123894	-54.905624	67.767700	1.144186	9.252688	11.958633	4.570328	2.213577	3.222700	20.218224	2.755123	-0.423511	
-3.293617	101.712085	16.315929	1.750295	-27.546160	30.865725	22.282013	0.730270	16.320492	1.940739	54.595497	-2.307229	5.945978	1.717106	4.479152	0.	0.	0.	4.227196	-8.502620	-5.092302	41.981155	72.665695	-42.027622	7.131642	2.143121	4.499535	0.	0.	0.	-0.000001	-0.000002	0.000001	-11.883231	20.746386	17.825264	3.268126	0.380487	5.862746	2.680057	-23.669212	-19.561779	-84.219940	-44.755665	-76.416481	7.070599	31.095324	-34.811058	-4.659885	-3.294066	-1.682635	-5.772363	17.655910	-6.443407	72.037865	-55.526619	61.258938	0.959217	9.034719	11.437661	4.208720	2.632302	4.114542	18.467190	2.661376	-1.802805	
-3.443030	101.585116	16.461517	2.188750	-26.803314	30.670750	21.636364	0.548284	16.733482	1.697452	54.500340	-2.254614	5.937572	1.703561	4.541952	0.	0.	0.	4.350226	-7.193141	-4.876410	35.313297	71.209999	-35.726170	6.440067	1.525532	5.050332	0.	0.	0.	0.000000	0.000002	-0.000000	-12.581130	20.217625	18.075911	4.016388	0.075966	6.119995	2.944691	-22.598045	-18.968235	-82.451050	-45.039696	-75.031197	7.149256	30.901690	-34.760685	-3.539759	-3.539282	-1.206406	-5.617489	17.242773	-6.388694	68.350220	-55.742249	58.040737	0.996300	8.880960	11.174009	5.437400	2.314384	4.864169	17.445499	2.603828	-2.450567	
-3.453047	101.177854	16.553584	3.061725	-23.808531	29.638872	19.061386	-1.119675	18.702972	1.454485	54.446053	-3.825127	6.405876	2.121056	6.520021	0.	0.	0.	5.218362	-4.055357	-4.049540	19.812857	65.408607	-17.369677	3.190711	-4.814385	2.054404	0.	0.	0.	-0.000001	-0.000001	0.000002	-10.937865	17.929609	18.452734	3.192971	0.146902	5.960833	4.687203	-18.447563	-15.823105	-76.573891	-45.934841	-70.432152	7.789606	29.873079	-34.828194	-2.557608	-2.991323	0.139094	-5.861488	15.587735	-6.433171	55.022293	-55.641708	47.844395	-1.795499	9.129877	10.982170	3.131978	3.019032	4.517818	16.874733	2.103079	-2.110652	
-3.686036	100.984823	16.468491	3.466965	-22.371408	29.090128	17.580072	-2.269210	19.280081	1.728539	54.470478	-4.228125	6.574676	2.385428	7.435149	0.	0.	0.	5.582040	-3.295852	-3.684772	14.552663	62.621681	-9.914053	2.322941	-6.887713	-0.868626	0.	0.	0.	-0.000000	-0.000000	0.000002	-10.144059	17.263229	18.576403	2.651364	-0.099192	5.829039	5.599679	-16.250847	-14.070875	-70.285522	-47.120693	-66.202675	6.463346	26.864885	-34.419498	-2.107620	-2.870383	0.873759	-6.347356	14.726591	-6.366724	49.372856	-55.065426	43.909981	-4.147370	8.877390	11.670792	2.768609	2.955669	4.721002	15.557157	2.038694	-2.114254	
-4.000788	100.833350	16.323039	3.858598	-21.097734	28.562735	16.089350	-3.357293	19.418577	2.039379	54.377850	-4.021217	6.489851	2.573167	7.886960	0.	0.	0.	5.954467	-2.723951	-2.307213	11.722293	59.722328	-7.118815	1.934405	-9.359313	-2.218949	0.	0.	0.	-0.000000	0.000001	0.000001	-9.323158	16.924732	18.666292	0.804695	-0.242036	5.695525	7.338306	-14.473294	-12.305441	-74.082542	-46.524986	-69.726257	9.870645	29.599485	-34.473949	-3.961323	-3.001647	0.728656	-4.926459	13.851874	-5.463851	44.351757	-54.155819	40.130352	-4.337277	7.268790	11.623225	2.428475	2.791798	5.089308	14.110453	1.950917	-2.159242	
-4.304159	100.731515	16.202252	4.218154	-19.999632	28.138805	14.670444	-4.348990	19.380672	2.566105	54.219669	-3.922870	6.337620	2.819300	8.245601	0.	0.	0.	6.272692	-2.055057	-0.988331	9.981140	56.778999	-6.130534	1.412293	-11.313641	-2.909682	0.	0.	0.	0.000001	0.000001	-0.000001	-8.456279	16.900740	18.539801	1.633820	-0.860132	5.590608	6.126755	-12.336348	-10.687382	-67.950111	-47.582821	-63.872684	10.093588	26.548830	-35.534863	-2.562316	-2.910608	1.868036	-6.530311	12.654191	-5.661057	39.582550	-52.866489	36.328594	-7.240218	7.841013	12.043423	2.086299	2.684968	5.520731	12.647677	1.708398	-2.092797	
-4.557807	100.660036	16.181889	4.439826	-19.459522	27.980896	13.970554	-4.884636	19.282711	2.902945	54.183620	-4.004229	6.273242	2.929029	8.505485	0.	0.	0.	6.370340	-1.717646	-0.526620	9.142324	55.349300	-5.588210	1.107096	-12.241874	-3.287234	0.	0.	0.	-0.000001	-0.000003	0.000001	-8.015309	16.921104	18.414782	1.410135	-1.027095	5.495483	6.140339	-11.559799	-9.902820	-66.333252	-47.665043	-62.201988	10.928657	25.806774	-35.696117	-1.417644	-2.697160	2.528704	-7.716902	11.900037	-5.858682	37.236073	-52.093674	34.444374	-7.896461	7.689963	11.856813	1.849747	2.682739	5.685471	12.028814	1.541194	-2.007056	
-4.871264	100.431291	16.152480	4.705848	-18.328482	27.743738	12.549206	-6.203461	18.859295	3.643857	54.380135	-4.304459	6.252401	2.878148	9.188517	0.	0.	0.	6.439361	-1.240912	0.063892	7.540340	52.651184	-4.129237	0.542934	-13.899778	-4.284260	0.	0.	0.	0.000001	0.000001	-0.000001	-7.092494	16.811842	18.126604	0.947861	-1.265805	5.157726	6.312149	-10.080346	-8.514379	-63.033489	-47.705662	-58.405350	12.705709	23.951500	-36.154945	-1.203277	-2.646739	3.057814	-8.103234	10.684959	-5.824083	32.979080	-50.266537	31.149689	-8.899740	7.226252	11.371982	1.376911	2.761617	5.857854	10.934196	1.199900	-1.848808	
-5.222948	100.105710	16.155965	4.845086	-17.079756	27.543989	11.140924	-7.721387	18.325005	4.647255	54.687698	-4.812736	6.307352	2.309482	9.750170	0.	0.	0.	6.403176	-1.096295	0.375464	6.096678	50.130325	-2.287864	0.053006	-15.350734	-5.473107	0.	0.	0.	0.000001	0.000001	-0.000003	-6.207968	16.545853	17.679831	0.586523	-1.585575	4.910204	6.533011	-8.535369	-7.643463	-59.660912	-48.015018	-54.961739	13.921109	22.149836	-36.037064	-1.043519	-2.665860	3.520444	-8.391319	9.525621	-5.927849	29.433588	-48.251930	28.565968	-9.649251	6.709169	11.164289	1.315119	2.621698	6.178107	9.568353	1.081060	-1.877557	
